<mxfile host="Electron" agent="Mozilla/5.0 (Macintosh; Intel Mac OS X 10_15_7) AppleWebKit/537.36 (KHTML, like Gecko) draw.io/25.0.2 Chrome/128.0.6613.186 Electron/32.2.5 Safari/537.36" version="25.0.2">
  <diagram name="Page-1" id="srmsBz3mxRqge-CqzSG_">
    <mxGraphModel dx="1482" dy="907" grid="1" gridSize="10" guides="1" tooltips="1" connect="1" arrows="1" fold="1" page="1" pageScale="1" pageWidth="1169" pageHeight="827" math="0" shadow="0">
      <root>
        <mxCell id="0" />
        <mxCell id="1" parent="0" />
        <mxCell id="3IkvsNTUhb4tRElNzne_-9" style="edgeStyle=orthogonalEdgeStyle;rounded=0;orthogonalLoop=1;jettySize=auto;html=1;" edge="1" parent="1" source="3IkvsNTUhb4tRElNzne_-1" target="3IkvsNTUhb4tRElNzne_-3">
          <mxGeometry relative="1" as="geometry" />
        </mxCell>
        <mxCell id="3IkvsNTUhb4tRElNzne_-1" value="" style="points=[[0.145,0.145,0],[0.5,0,0],[0.855,0.145,0],[1,0.5,0],[0.855,0.855,0],[0.5,1,0],[0.145,0.855,0],[0,0.5,0]];shape=mxgraph.bpmn.event;html=1;verticalLabelPosition=bottom;labelBackgroundColor=#ffffff;verticalAlign=top;align=center;perimeter=ellipsePerimeter;outlineConnect=0;aspect=fixed;outline=standard;symbol=general;" vertex="1" parent="1">
          <mxGeometry x="60" y="394" width="50" height="50" as="geometry" />
        </mxCell>
        <mxCell id="3IkvsNTUhb4tRElNzne_-2" value="" style="points=[[0.145,0.145,0],[0.5,0,0],[0.855,0.145,0],[1,0.5,0],[0.855,0.855,0],[0.5,1,0],[0.145,0.855,0],[0,0.5,0]];shape=mxgraph.bpmn.event;html=1;verticalLabelPosition=bottom;labelBackgroundColor=#ffffff;verticalAlign=top;align=center;perimeter=ellipsePerimeter;outlineConnect=0;aspect=fixed;outline=end;symbol=terminate2;" vertex="1" parent="1">
          <mxGeometry x="1010" y="394" width="50" height="50" as="geometry" />
        </mxCell>
        <mxCell id="3IkvsNTUhb4tRElNzne_-3" value="" style="points=[[0.25,0,0],[0.5,0,0],[0.75,0,0],[1,0.25,0],[1,0.5,0],[1,0.75,0],[0.75,1,0],[0.5,1,0],[0.25,1,0],[0,0.75,0],[0,0.5,0],[0,0.25,0]];shape=mxgraph.bpmn.task;whiteSpace=wrap;rectStyle=rounded;size=10;html=1;container=1;expand=0;collapsible=0;taskMarker=abstract;" vertex="1" parent="1">
          <mxGeometry x="210" y="379" width="120" height="80" as="geometry" />
        </mxCell>
        <mxCell id="3IkvsNTUhb4tRElNzne_-4" value="" style="points=[[0.145,0.145,0],[0.5,0,0],[0.855,0.145,0],[1,0.5,0],[0.855,0.855,0],[0.5,1,0],[0.145,0.855,0],[0,0.5,0]];shape=mxgraph.bpmn.event;html=1;verticalLabelPosition=bottom;labelBackgroundColor=#ffffff;verticalAlign=top;align=center;perimeter=ellipsePerimeter;outlineConnect=0;aspect=fixed;outline=standard;symbol=general;" vertex="1" parent="1">
          <mxGeometry x="410" y="394" width="50" height="50" as="geometry" />
        </mxCell>
        <mxCell id="3IkvsNTUhb4tRElNzne_-5" value="" style="points=[[0.25,0.25,0],[0.5,0,0],[0.75,0.25,0],[1,0.5,0],[0.75,0.75,0],[0.5,1,0],[0.25,0.75,0],[0,0.5,0]];shape=mxgraph.bpmn.gateway2;html=1;verticalLabelPosition=bottom;labelBackgroundColor=#ffffff;verticalAlign=top;align=center;perimeter=rhombusPerimeter;outlineConnect=0;outline=none;symbol=none;" vertex="1" parent="1">
          <mxGeometry x="545" y="394" width="50" height="50" as="geometry" />
        </mxCell>
        <mxCell id="3IkvsNTUhb4tRElNzne_-6" value="" style="points=[[0.25,0,0],[0.5,0,0],[0.75,0,0],[1,0.25,0],[1,0.5,0],[1,0.75,0],[0.75,1,0],[0.5,1,0],[0.25,1,0],[0,0.75,0],[0,0.5,0],[0,0.25,0]];shape=mxgraph.bpmn.task;whiteSpace=wrap;rectStyle=rounded;size=10;html=1;container=1;expand=0;collapsible=0;taskMarker=abstract;" vertex="1" parent="1">
          <mxGeometry x="690" y="264" width="120" height="80" as="geometry" />
        </mxCell>
        <mxCell id="3IkvsNTUhb4tRElNzne_-7" value="" style="points=[[0.25,0,0],[0.5,0,0],[0.75,0,0],[1,0.25,0],[1,0.5,0],[1,0.75,0],[0.75,1,0],[0.5,1,0],[0.25,1,0],[0,0.75,0],[0,0.5,0],[0,0.25,0]];shape=mxgraph.bpmn.task;whiteSpace=wrap;rectStyle=rounded;size=10;html=1;container=1;expand=0;collapsible=0;taskMarker=abstract;" vertex="1" parent="1">
          <mxGeometry x="700" y="484" width="120" height="80" as="geometry" />
        </mxCell>
        <mxCell id="3IkvsNTUhb4tRElNzne_-8" value="" style="points=[[0.25,0.25,0],[0.5,0,0],[0.75,0.25,0],[1,0.5,0],[0.75,0.75,0],[0.5,1,0],[0.25,0.75,0],[0,0.5,0]];shape=mxgraph.bpmn.gateway2;html=1;verticalLabelPosition=bottom;labelBackgroundColor=#ffffff;verticalAlign=top;align=center;perimeter=rhombusPerimeter;outlineConnect=0;outline=none;symbol=none;" vertex="1" parent="1">
          <mxGeometry x="900" y="394" width="50" height="50" as="geometry" />
        </mxCell>
        <mxCell id="3IkvsNTUhb4tRElNzne_-10" style="edgeStyle=orthogonalEdgeStyle;rounded=0;orthogonalLoop=1;jettySize=auto;html=1;exitX=1;exitY=0.5;exitDx=0;exitDy=0;exitPerimeter=0;entryX=0;entryY=0.5;entryDx=0;entryDy=0;entryPerimeter=0;" edge="1" parent="1" source="3IkvsNTUhb4tRElNzne_-3" target="3IkvsNTUhb4tRElNzne_-4">
          <mxGeometry relative="1" as="geometry" />
        </mxCell>
        <mxCell id="3IkvsNTUhb4tRElNzne_-11" style="edgeStyle=orthogonalEdgeStyle;rounded=0;orthogonalLoop=1;jettySize=auto;html=1;exitX=1;exitY=0.5;exitDx=0;exitDy=0;exitPerimeter=0;entryX=0;entryY=0.5;entryDx=0;entryDy=0;entryPerimeter=0;" edge="1" parent="1" source="3IkvsNTUhb4tRElNzne_-4" target="3IkvsNTUhb4tRElNzne_-5">
          <mxGeometry relative="1" as="geometry" />
        </mxCell>
        <mxCell id="3IkvsNTUhb4tRElNzne_-12" style="edgeStyle=orthogonalEdgeStyle;rounded=0;orthogonalLoop=1;jettySize=auto;html=1;exitX=0.5;exitY=0;exitDx=0;exitDy=0;exitPerimeter=0;entryX=0;entryY=0.5;entryDx=0;entryDy=0;entryPerimeter=0;" edge="1" parent="1" source="3IkvsNTUhb4tRElNzne_-5" target="3IkvsNTUhb4tRElNzne_-6">
          <mxGeometry relative="1" as="geometry" />
        </mxCell>
        <mxCell id="3IkvsNTUhb4tRElNzne_-13" style="edgeStyle=orthogonalEdgeStyle;rounded=0;orthogonalLoop=1;jettySize=auto;html=1;entryX=0;entryY=0.5;entryDx=0;entryDy=0;entryPerimeter=0;" edge="1" parent="1" target="3IkvsNTUhb4tRElNzne_-7">
          <mxGeometry relative="1" as="geometry">
            <mxPoint x="570" y="444" as="sourcePoint" />
            <mxPoint x="685" y="549" as="targetPoint" />
            <Array as="points">
              <mxPoint x="570" y="444" />
              <mxPoint x="570" y="524" />
            </Array>
          </mxGeometry>
        </mxCell>
        <mxCell id="3IkvsNTUhb4tRElNzne_-14" style="edgeStyle=orthogonalEdgeStyle;rounded=0;orthogonalLoop=1;jettySize=auto;html=1;entryX=0.5;entryY=0;entryDx=0;entryDy=0;entryPerimeter=0;" edge="1" parent="1" source="3IkvsNTUhb4tRElNzne_-6" target="3IkvsNTUhb4tRElNzne_-8">
          <mxGeometry relative="1" as="geometry" />
        </mxCell>
        <mxCell id="3IkvsNTUhb4tRElNzne_-15" style="edgeStyle=orthogonalEdgeStyle;rounded=0;orthogonalLoop=1;jettySize=auto;html=1;entryX=0.5;entryY=1;entryDx=0;entryDy=0;entryPerimeter=0;" edge="1" parent="1" source="3IkvsNTUhb4tRElNzne_-7" target="3IkvsNTUhb4tRElNzne_-8">
          <mxGeometry relative="1" as="geometry" />
        </mxCell>
        <mxCell id="3IkvsNTUhb4tRElNzne_-16" style="edgeStyle=orthogonalEdgeStyle;rounded=0;orthogonalLoop=1;jettySize=auto;html=1;entryX=0;entryY=0.5;entryDx=0;entryDy=0;entryPerimeter=0;" edge="1" parent="1" source="3IkvsNTUhb4tRElNzne_-8" target="3IkvsNTUhb4tRElNzne_-2">
          <mxGeometry relative="1" as="geometry" />
        </mxCell>
      </root>
    </mxGraphModel>
  </diagram>
</mxfile>
